<svg xmlns="http://www.w3.org/2000/svg" xmlns:xlink="http://www.w3.org/1999/xlink" version="1.1" id="Your_Icon" x="0px" y="0px" width="100px" height="100px" viewBox="5.0 -10.0 100.0 135.0" enable-background="new 0 0 100 100" xml:space="preserve">
<g>
</g>
<path fill="#fff" d="M90.81,76.85c-0.01-0.02-0.029-0.029-0.05-0.05c-0.01-0.02-0.01-0.04-0.029-0.06L75.24,56.3  c-0.04-0.08-0.061-0.16-0.11-0.229L63.27,40.44l-0.1-22.92c4.85-0.6,7.38-4.04,7.38-7.45c0-2.04-0.87-3.93-2.46-5.31  c-1.71-1.48-4.12-2.26-6.97-2.26h-22.2c-6.48,0-9.43,3.92-9.43,7.57c0,3.41,2.54,6.85,7.38,7.45l-0.1,22.92l-27.5,36.3  c-0.02,0.02-0.02,0.04-0.03,0.06c-0.02,0.021-0.04,0.03-0.05,0.05c-2.8,4.46-3,10-0.53,14.46c2.14,3.881,5.9,6.19,10.07,6.19h62.54  c4.171,0,7.931-2.31,10.07-6.19C93.81,86.85,93.61,81.31,90.81,76.85z M88.74,89.87c-1.61,2.91-4.41,4.649-7.471,4.649H18.73  c-3.07,0-5.86-1.739-7.47-4.649C9.33,86.37,9.49,82,11.7,78.46l27.75-36.61c0.03-0.05,0.04-0.11,0.07-0.16  c0.06-0.09,0.1-0.17,0.13-0.27c0.04-0.1,0.05-0.2,0.07-0.3c0-0.05,0.03-0.11,0.03-0.16l0.11-24.83c0-0.1-0.04-0.18-0.05-0.27  c-0.02-0.11-0.03-0.22-0.07-0.31c-0.03-0.08-0.09-0.14-0.14-0.21c-0.05-0.09-0.1-0.19-0.17-0.26c-0.06-0.06-0.14-0.1-0.21-0.14  c-0.09-0.07-0.17-0.14-0.27-0.18c-0.08-0.04-0.18-0.04-0.27-0.06c-0.1-0.02-0.19-0.06-0.3-0.06c-0.01,0-0.01,0-0.01,0  c-4.05,0-5.9-2.37-5.9-4.57c0-2.29,2-4.59,6.45-4.59h22.2c4.46,0,6.45,2.3,6.45,4.59c0,2.2-1.84,4.57-5.9,4.57  c-0.11,0-0.21,0.04-0.31,0.06c-0.091,0.02-0.19,0.02-0.271,0.06c-0.1,0.04-0.18,0.11-0.27,0.18c-0.061,0.04-0.141,0.08-0.2,0.14  c-0.08,0.07-0.12,0.17-0.18,0.26c-0.04,0.07-0.101,0.13-0.141,0.21c-0.04,0.09-0.04,0.2-0.06,0.31c-0.021,0.09-0.05,0.17-0.05,0.27  l0.01,3.58h-8.75c-0.83,0-1.49,0.66-1.49,1.49c0,0.82,0.66,1.49,1.49,1.49h8.76l0.06,12.12H51.45c-0.83,0-1.49,0.67-1.49,1.49  c0,0.82,0.66,1.49,1.49,1.49h8.83l0.01,2.86c-0.08,0.41-0.01,0.84,0.26,1.2l5.86,7.73h-7.43c-0.83,0-1.49,0.67-1.49,1.49  c0,0.83,0.66,1.489,1.49,1.489h9.51c0.05,0,0.1-0.02,0.16-0.029l8.96,11.83h-7.17c-0.82,0-1.49,0.659-1.49,1.489  c0,0.82,0.67,1.48,1.49,1.48h9.43l8.43,11.13C90.51,82,90.67,86.37,88.74,89.87z"/>
<g>
	<path fill="#fff" d="M87.438,79.112L79.333,68.41H70.44c-1.417,0-2.57-1.148-2.57-2.561c0-1.417,1.153-2.569,2.57-2.569h4.997   l-5.442-7.186c-18.272,8.202-21.671-6.816-41.851,2.455L12.616,79.032c-1.998,3.199-2.155,7.152-0.412,10.315   c1.418,2.563,3.857,4.092,6.525,4.092h62.54c2.668,0,5.107-1.529,6.525-4.091C89.539,86.185,89.381,82.231,87.438,79.112z"/>
</g>
</svg>