<svg xmlns="http://www.w3.org/2000/svg" xmlns:xlink="http://www.w3.org/1999/xlink" version="1.1" x="0px" y="0px" width="100px" height="100px" viewBox="5.0 -10.0 100.0 135.0" enable-background="new 0 0 100 100" xml:space="preserve">
<g id="Layer_1">
	<g>
		<path d="M37.806,47.048c2.583,0.774,10.933,0.908,16.389,0.908c1.597,0,2.949-0.012,3.831-0.021    c1.734-0.02,3.126-1.445,3.104-3.179c-0.019-1.723-1.421-3.106-3.14-3.106c-0.013,0-0.024,0-0.036,0    c-7.532,0.087-16.688-0.126-18.34-0.621c-1.479-0.562-3.472-6.865-4.322-9.556c-0.118-0.372-0.231-0.726-0.347-1.087    c-0.014-2.581-1.212-5.121-3.471-6.742c-3.745-2.687-8.958-1.834-11.649,1.91C3.292,48.564,5.031,55.079,5.685,57.532    c0.803,3.009,3.16,5.168,5.974,5.903c0.52,0.254,1.096,0.409,1.712,0.409c0.015,0,0.027,0,0.039,0    c11.486-0.119,19.033,1.907,22.411,5.996c3.623,4.387,2.207,11.385,1.07,17.009c-0.449,2.214-0.871,4.303-0.97,6.127    c-0.12,2.167,1.54,4.018,3.706,4.136c0.072,0.005,0.145,0.005,0.218,0.005c2.07,0,3.802-1.618,3.917-3.713    c0.07-1.252,0.438-3.07,0.827-4.997c1.39-6.874,3.297-16.293-2.713-23.567c-3.914-4.739-10.461-7.538-19.838-8.484    c0.068-0.575,0.083-1.162,0.028-1.754c0.699-2.607,4.542-9.381,9.007-15.979C32.606,42.665,34.548,46.07,37.806,47.048z" fill="white" stroke="white"/>
		<circle cx="42.931" cy="13.129" r="11.375" fill="white"/>
		<path d="M69.203,51.567H56.636c-1.301,0-2.354,1.796-2.354,3.097c0,1.3,1.054,3.098,2.354,3.098h12.567    c1.301,0,2.355-1.798,2.355-3.098C71.559,53.363,70.504,51.567,69.203,51.567z" fill="white" stroke="white"/>
		<path d="M82.468,35.798c-0.005-0.013-0.014-0.024-0.019-0.035l8.649-20.443c0.845-1.998-0.089-4.304-2.085-5.147    c-1.997-0.842-4.303,0.088-5.147,2.085L71.39,41.747c-0.847,2.001,0.088,4.305,2.085,5.149c0.498,0.21,1.019,0.312,1.529,0.312    c1.529,0,2.983-0.901,3.617-2.398l1.437-3.396l4.433,10.152h-7.434c-1.302,0-2.354,1.796-2.354,3.097    c0,1.3,1.053,3.098,2.354,3.098h14.559L82.468,35.798z" fill="white" stroke="white"/>
	</g>
</g>
<g id="nyt_x5F_exporter_x5F_info" display="none">
</g>
</svg>